HIERARCHY
ROOT Hips
{
	OFFSET 0.000000 8.830580 0.000000
	CHANNELS 6 Xposition Yposition Zposition Zrotation Yrotation Xrotation 
	JOINT Spine
	{
		OFFSET 0.000000 0.010000 0.000000
		CHANNELS 3 Zrotation Yrotation Xrotation
		JOINT Spine1
		{
			OFFSET 0.000000 2.459130 0.000000
			CHANNELS 3 Zrotation Yrotation Xrotation
			JOINT Neck
			{
				OFFSET 0.000000 2.484630 0.000000
				CHANNELS 3 Zrotation Yrotation Xrotation
				JOINT Head_virtual
				{
					OFFSET 0.000000 0.000000 0.000000
					CHANNELS 3 Zrotation Yrotation Xrotation
					JOINT Head
					{
						OFFSET 0.000000 0.927525 0.000000
						CHANNELS 3 Zrotation Yrotation Xrotation
						End Site
						{
							OFFSET 0.000000 0.000000 0.000000
						}
					}
				}
				JOINT LeftUpArm_virtual
				{
					OFFSET 0.000000 0.000000 0.000000
					CHANNELS 3 Zrotation Yrotation Xrotation
					JOINT LeftUpArm
					{
						OFFSET 1.248820 0.000000 0.000000
						CHANNELS 3 Zrotation Yrotation Xrotation
						JOINT LeftForeArm
						{
							OFFSET 2.597580 0.000000 0.000000
							CHANNELS 3 Zrotation Yrotation Xrotation
							JOINT LeftHand
							{
								OFFSET 2.455420 0.000000 0.000000
								CHANNELS 3 Zrotation Yrotation Xrotation
								End Site
								{
									OFFSET 0.000000 0.000000 0.000000
								}
							}
						}
					}
				}
				JOINT RightUpArm_virtual
				{
					OFFSET -0.000000 -0.000000 -0.000000
					CHANNELS 3 Zrotation Yrotation Xrotation
					JOINT RightUpArm
					{
						OFFSET -1.248820 -0.000000 -0.000000
						CHANNELS 3 Zrotation Yrotation Xrotation
						JOINT RightForeArm
						{
							OFFSET -2.597580 -0.000000 -0.000000
							CHANNELS 3 Zrotation Yrotation Xrotation
							JOINT RightHand
							{
								OFFSET -2.455420 -0.000000 -0.000000
								CHANNELS 3 Zrotation Yrotation Xrotation
								End Site
								{
									OFFSET 0.000000 0.000000 0.000000
								}
							}
						}
					}
				}
			}
		}
	}
	JOINT LeftUpLeg
	{
		OFFSET 1.271939 0.000000 0.000000
		CHANNELS 3 Zrotation Yrotation Xrotation
		JOINT LeftLowLeg
		{
			OFFSET 0.000000 -4.342910 0.000000
			CHANNELS 3 Zrotation Yrotation Xrotation
			JOINT LeftFoot
			{
				OFFSET 0.000000 -4.487670 0.000000
				CHANNELS 3 Zrotation Yrotation Xrotation
				JOINT LeftToeBase
				{
					OFFSET 0.000000 0.000000 1.515070
					CHANNELS 3 Zrotation Yrotation Xrotation
					End Site
					{
						OFFSET 0.000000 0.000000 0.000000
					}
				}
			}
		}
	}
	JOINT RightUpLeg
	{
		OFFSET -1.271939 0.000000 0.000000
		CHANNELS 3 Zrotation Yrotation Xrotation
		JOINT RightLowLeg
		{
			OFFSET 0.000000 -4.342910 0.000000
			CHANNELS 3 Zrotation Yrotation Xrotation
			JOINT RightFoot
			{
				OFFSET 0.000000 -4.487670 0.000000
				CHANNELS 3 Zrotation Yrotation Xrotation
				JOINT RightToeBase
				{
					OFFSET 0.000000 0.000000 1.515070
					CHANNELS 3 Zrotation Yrotation Xrotation
					End Site
					{
						OFFSET 0.000000 0.000000 0.000000
					}
				}
			}
		}
	}
}
MOTION
Frames: 17
Frame Time: 0.041667
-11.291974 9.250234 54.481601 -175.379781 10.523948 176.804201 3.840914 -3.987968 -22.739032 0.484387 -0.400917 40.208286 0.000000 0.000000 0.000000 -5.764619 -1.016737 -19.545245 8.834741 8.298261 -68.082332 -29.814600 -1.895260 -6.407380 -31.603701 -4.634340 35.451302 0.000000 -22.068899 0.000000 7.232140 -22.249599 -11.526100 27.073000 1.141150 -1.473500 40.115501 6.688370 23.412701 0.000000 26.630400 0.000000 -4.162750 -0.667266 -8.031490 13.280145 23.177761 11.550668 0.000000 0.000000 2.905250 -11.752374 5.446293 9.703657 0.000000 0.000000 -10.777340 11.865940 8.894045 8.535969 0.000000 0.000000 7.746970 12.194790 -24.658617 7.298094 0.000000 0.000000 -13.097540 
-11.250269 9.248572 54.482116 -175.474355 10.411812 176.928170 3.774836 -4.075717 -22.405930 0.461532 -0.440766 40.206233 0.000000 0.000000 0.000000 -6.004776 -1.071390 -20.551728 8.946550 8.196233 -68.475975 -29.610300 -1.778590 -6.498120 -31.716499 -4.386020 35.477798 0.000000 -22.638700 0.000000 7.888750 -22.201000 -11.807400 27.122801 1.217500 -1.312860 39.936100 7.039650 23.402201 0.000000 26.667101 0.000000 -4.145530 -0.649572 -8.010170 13.307571 23.194774 10.917262 0.000000 0.000000 3.813370 -11.765602 5.558159 9.471076 0.000000 0.000000 -10.975510 11.985424 8.881688 8.461277 0.000000 0.000000 7.701910 12.161841 -24.684096 7.264996 0.000000 0.000000 -13.038360 
-11.210193 9.246659 54.482904 -175.559265 10.260086 177.056169 3.704369 -4.283846 -22.038684 0.628821 -0.490340 40.181070 0.000000 0.000000 0.000000 -6.525398 -1.252970 -21.529953 9.103599 7.999104 -69.001054 -29.528200 -1.737310 -6.347470 -31.827801 -4.187160 35.278000 0.000000 -23.094200 0.000000 8.192850 -22.372700 -12.350700 26.918800 1.307380 -1.115850 39.903198 7.356480 23.198900 0.000000 26.771799 0.000000 -4.154540 -0.551540 -8.056750 13.227537 22.772346 10.112987 0.000000 0.000000 4.963860 -11.752596 6.031758 9.049386 0.000000 0.000000 -11.160280 12.093478 8.792400 8.374617 0.000000 0.000000 7.658900 12.109770 -24.674417 7.249133 0.000000 0.000000 -12.997210 
-11.172210 9.244686 54.483358 -175.684234 10.063599 177.191948 3.644640 -4.395165 -21.658696 0.682106 -0.525321 40.164932 0.000000 0.000000 0.000000 -6.732336 -1.442809 -22.574607 9.001921 7.825749 -69.565666 -29.413300 -1.735550 -6.377120 -31.939800 -3.954640 35.384300 0.000000 -23.388599 0.000000 8.369990 -22.583099 -12.832100 26.856100 1.391500 -1.082140 39.748100 7.514710 23.221901 0.000000 26.988600 0.000000 -4.290070 -0.431434 -8.095420 13.008410 22.042255 9.090219 0.000000 0.000000 6.433520 -11.786197 6.789011 8.485573 0.000000 0.000000 -11.369280 12.148948 8.629346 8.236112 0.000000 0.000000 7.681930 12.045214 -24.655399 7.178981 0.000000 0.000000 -12.931870 
-11.137962 9.242504 54.483752 -175.836214 9.845828 177.388738 3.600749 -4.497952 -21.362204 0.703775 -0.574297 40.195730 0.000000 0.000000 0.000000 -6.965882 -1.600632 -23.571187 9.051258 7.683960 -70.190749 -29.386999 -1.642400 -6.284170 -32.005402 -3.954320 35.417702 0.000000 -23.546499 0.000000 8.461750 -22.708099 -12.893200 26.757099 1.488910 -1.016900 39.610699 7.652180 23.057800 0.000000 27.315201 0.000000 -4.292810 -0.725512 -8.105370 12.605891 20.855483 7.778655 0.000000 0.000000 8.259170 -11.890131 7.978172 7.733170 0.000000 0.000000 -11.862360 12.164426 8.534163 8.032598 0.000000 0.000000 7.702360 11.992523 -24.692969 7.066488 0.000000 0.000000 -12.898380 
-11.108026 9.239805 54.483172 -176.001575 9.596687 177.552083 3.610259 -4.533799 -21.067348 0.644663 -0.644088 40.309773 0.000000 0.000000 0.000000 -7.062384 -1.756705 -24.639545 9.048820 7.506778 -70.712936 -29.365900 -1.660730 -6.325390 -32.119900 -3.850770 35.344601 0.000000 -23.496799 0.000000 8.320570 -22.954500 -12.769200 26.695499 1.573820 -1.122800 39.468101 7.754790 23.103201 0.000000 27.524700 0.000000 -4.433360 -0.690214 -8.460070 12.047790 19.005155 6.239099 0.000000 0.000000 10.550000 -12.151732 9.703778 6.724740 0.000000 0.000000 -12.649390 12.166300 8.516743 7.897465 0.000000 0.000000 7.672140 12.008560 -24.799011 6.889986 0.000000 0.000000 -12.866770 
-11.083499 9.237280 54.480110 -176.187704 9.330949 177.632591 3.707536 -4.431410 -20.784397 0.392995 -0.748326 40.564081 0.000000 0.000000 0.000000 -7.032162 -1.865656 -25.638122 9.056712 7.377188 -71.281819 -29.290199 -1.678240 -6.251910 -32.231701 -3.905320 35.263000 0.000000 -23.375799 0.000000 8.284980 -23.067301 -12.691300 26.702299 1.716580 -1.233470 39.299400 7.868100 23.046801 0.000000 27.717800 0.000000 -4.501060 -0.516949 -8.629760 11.342329 16.525429 4.540272 0.000000 0.000000 13.334200 -12.335255 11.965521 5.461299 0.000000 0.000000 -14.274241 12.133769 8.493873 7.884208 0.000000 0.000000 7.587620 12.024538 -24.920140 6.690987 0.000000 0.000000 -12.828920 
-11.066131 9.234792 54.473539 -176.392157 8.973454 177.936870 3.950720 -4.172144 -20.801973 -0.131568 -0.924475 40.920665 0.000000 0.000000 0.000000 -6.870981 -1.876881 -26.663164 9.092871 7.288224 -71.754819 -29.136499 -1.702560 -6.176030 -32.327202 -4.022640 35.286400 0.000000 -23.221399 0.000000 8.283380 -23.047001 -12.761000 26.816999 1.799510 -1.393820 39.129398 8.042470 23.048000 0.000000 27.853100 0.000000 -4.515310 -0.679535 -8.677030 10.476208 13.980693 2.401530 0.000000 0.000000 16.521200 -11.459183 14.415453 4.374069 0.000000 0.000000 -16.105230 11.989819 8.390654 7.756244 0.000000 0.000000 7.296650 12.065954 -24.961087 6.528651 0.000000 0.000000 -12.787510 
-11.054224 9.233793 54.463305 -176.608767 8.623936 178.179320 4.237776 -3.891746 -20.816422 -0.661184 -1.112557 41.350604 0.000000 0.000000 0.000000 -6.547604 -1.898925 -27.684698 9.005275 7.150944 -72.118034 -29.052000 -1.771580 -6.229510 -32.421398 -4.060910 35.482399 0.000000 -22.952200 0.000000 8.325410 -23.096100 -13.108100 26.973801 1.895270 -1.510360 38.862801 8.300090 23.041500 0.000000 27.810101 0.000000 -4.602840 -0.133310 -8.482200 9.612076 11.824044 0.177475 0.000000 0.000000 20.060200 -9.023370 16.879684 3.945644 0.000000 0.000000 -18.448200 11.849017 8.441039 7.707470 0.000000 0.000000 7.020430 12.146532 -25.164674 6.311638 0.000000 0.000000 -12.710860 
-11.045793 9.233550 54.448827 -176.851312 8.243290 178.458855 4.511994 -3.662310 -20.839733 -1.139447 -1.306843 41.631046 0.000000 0.000000 0.000000 -6.346985 -1.912213 -28.396006 8.988587 7.098786 -72.575412 -29.025700 -1.810020 -6.273390 -32.538898 -4.032830 35.698601 0.000000 -22.653601 0.000000 8.293110 -23.116199 -13.149000 27.106100 2.049240 -1.635040 38.583099 8.500200 23.154100 0.000000 27.592199 0.000000 -4.550070 -0.120002 -8.591860 8.749449 10.200735 -2.184841 0.000000 0.000000 23.696600 -6.809105 18.637173 3.775444 0.000000 0.000000 -19.625800 11.634864 8.361884 7.695587 0.000000 0.000000 6.628550 12.201832 -25.253047 6.157672 0.000000 0.000000 -12.697060 
-11.039513 9.234083 54.431528 -177.104994 7.923232 178.720937 4.740658 -3.493216 -20.800835 -1.384168 -1.428914 41.788520 0.000000 0.000000 0.000000 -6.275929 -2.015621 -28.948477 9.083448 6.983742 -72.955824 -29.037800 -1.826600 -6.423640 -32.819500 -3.941640 36.024601 0.000000 -22.234800 0.000000 8.134990 -23.198299 -13.272600 27.191099 2.141110 -1.781690 38.261002 8.626340 23.211300 0.000000 27.316299 0.000000 -4.340870 -0.347092 -8.525120 7.914362 8.626308 -4.536686 0.000000 0.000000 27.316401 -6.191511 19.319233 3.486763 0.000000 0.000000 -20.499860 11.425031 8.431180 7.693623 0.000000 0.000000 6.297180 12.262211 -25.434281 5.966605 0.000000 0.000000 -12.723390 
-11.034912 9.234584 54.413002 -177.390828 7.706545 179.165605 4.918482 -3.366099 -20.859963 -1.451919 -1.477423 41.778917 0.000000 0.000000 0.000000 -6.335958 -2.164566 -29.309214 9.169404 6.886748 -73.314533 -29.080500 -1.760030 -6.518450 -33.174400 -3.847850 36.411999 0.000000 -21.935499 0.000000 7.957140 -23.076401 -13.389300 27.201799 2.266190 -1.988700 37.977001 8.692760 23.316401 0.000000 26.836500 0.000000 -4.330630 -0.354162 -8.417460 7.077936 7.481063 -6.961627 0.000000 0.000000 30.576300 -6.165958 18.354364 3.368761 0.000000 0.000000 -20.921600 11.121552 8.430116 7.484867 0.000000 0.000000 6.026380 12.250398 -25.461932 5.793432 0.000000 0.000000 -12.788180 
-11.030391 9.235159 54.389174 -177.696625 7.708748 179.613548 4.973402 -3.341991 -20.812533 -1.078231 -1.359876 41.547800 0.000000 0.000000 0.000000 -6.556477 -2.470018 -29.452137 9.301860 6.729271 -73.723908 -29.326099 -1.709000 -6.732590 -33.571800 -3.524030 36.931000 0.000000 -21.674299 0.000000 7.840480 -22.990601 -13.473300 27.098000 2.294190 -2.044470 37.599701 8.755220 23.219000 0.000000 26.371599 0.000000 -4.187960 -0.473906 -8.056150 6.274872 6.899200 -9.173220 0.000000 0.000000 33.152100 -6.961883 15.959290 3.121941 0.000000 0.000000 -21.180950 10.773906 8.403711 7.232090 0.000000 0.000000 5.904760 12.244056 -25.312805 5.549546 0.000000 0.000000 -12.735200 
-11.027081 9.237742 54.362256 -178.035676 7.725585 -179.868235 4.847300 -3.592560 -20.971952 -0.187801 -1.096714 41.626426 0.000000 0.000000 0.000000 -7.140621 -2.904347 -29.933000 9.616419 6.401135 -73.746154 -29.656300 -1.813760 -7.158200 -34.085701 -3.034920 37.445099 0.000000 -21.617901 0.000000 7.507820 -22.973700 -13.511100 26.591101 2.335550 -2.352160 37.404999 8.755540 23.160700 0.000000 25.849600 0.000000 -4.090570 -0.395471 -7.684420 5.424409 6.427073 -11.303871 0.000000 0.000000 35.031300 -6.871142 13.677382 3.701711 0.000000 0.000000 -22.361860 10.348236 8.206329 6.868928 0.000000 0.000000 5.847310 12.051205 -25.070436 5.482151 0.000000 0.000000 -12.902660 
-11.022276 9.239223 54.331445 -178.382015 7.739448 -179.280622 4.792172 -3.702390 -20.977943 0.329247 -0.936144 41.259310 0.000000 0.000000 0.000000 -7.602956 -3.201305 -30.105181 9.926375 6.266629 -74.021567 -29.968000 -1.622380 -7.339430 -34.378601 -2.666790 38.052601 0.000000 -21.657801 0.000000 7.352380 -22.812201 -13.866000 26.402901 2.516460 -2.380730 37.126099 8.684770 23.060200 0.000000 25.278999 0.000000 -4.105080 -0.666382 -7.580190 4.561175 6.057254 -13.321131 0.000000 0.000000 36.114498 -7.550065 11.420771 4.254695 0.000000 0.000000 -23.564120 9.923479 7.985300 6.436924 0.000000 0.000000 5.818470 11.930414 -24.861005 5.320366 0.000000 0.000000 -12.858880 
-11.021885 9.241848 54.295381 -178.771800 7.688685 -178.794838 4.923881 -3.450074 -20.898746 0.148386 -0.917581 40.895664 0.000000 0.000000 0.000000 -7.701859 -3.262622 -30.320659 10.179945 6.242422 -74.342225 -29.966700 -1.423780 -7.624190 -34.559299 -2.126080 38.596500 0.000000 -21.878401 0.000000 7.147280 -22.627100 -14.463200 26.594101 2.833320 -2.395770 36.811600 8.480250 22.883900 0.000000 24.729500 0.000000 -4.097340 -0.686957 -7.713140 3.607110 5.475116 -15.067762 0.000000 0.000000 36.411499 -8.776441 9.814622 4.639751 0.000000 0.000000 -24.065180 9.451867 7.733302 6.179720 0.000000 0.000000 5.688370 11.843311 -24.664472 5.202801 0.000000 0.000000 -12.906180 
-11.019618 9.243327 54.252328 -179.085704 7.578327 -178.363337 5.150407 -3.074866 -20.768980 -0.260323 -0.965963 40.521760 0.000000 0.000000 0.000000 -7.623141 -3.228046 -30.624544 10.345843 6.244749 -74.650446 -29.717199 -1.164840 -7.905330 -34.827301 -1.598010 39.130901 0.000000 -22.040501 0.000000 7.011620 -22.634701 -14.305000 26.928900 2.929010 -2.208800 36.556198 8.592820 22.634399 0.000000 24.194201 0.000000 -4.014860 -0.748748 -7.837420 2.719883 4.940812 -16.685805 0.000000 0.000000 36.227901 -9.440295 8.788314 4.926479 0.000000 0.000000 -24.445720 9.090781 7.478444 6.074503 0.000000 0.000000 5.448180 11.736803 -24.589398 5.141012 0.000000 0.000000 -12.918000 
